<svg width="135" height="61" viewBox="0 0 135 61" fill="none" xmlns="http://www.w3.org/2000/svg">
<g id="~ 2">
<path id="~" d="M98.8816 60.408C109.833 60.408 118.5 55.5438 124.881 45.8153C131.262 36.0868 134.452 22.761 134.452 5.83788H105.263C104.629 9.2768 103.362 12.037 101.461 14.1184C99.5604 16.1999 96.7999 17.2406 93.1795 17.2406C89.9211 17.2406 86.3912 16.3809 82.5898 14.6614C78.7884 12.942 74.6702 10.9736 70.2352 8.75644C65.8002 6.53924 60.8901 4.59354 55.5047 2.91933C50.1194 1.24512 44.2136 0.40802 37.7874 0.40802C26.2021 0.40802 17.0832 5.2949 10.4307 15.0687C3.77827 24.8424 0.452026 38.1003 0.452026 54.8424H29.6415C30.2751 51.494 31.7006 48.7791 33.9181 46.6976C36.1356 44.6162 39.0998 43.5754 42.8107 43.5754C45.888 43.5754 49.2822 44.4125 52.9931 46.0868C56.704 47.761 60.8674 49.7293 65.4834 51.9917C70.0994 54.2542 75.1906 56.2225 80.757 57.8967C86.3233 59.5709 92.3649 60.408 98.8816 60.408Z" fill="#F94F4F"/>
</g>
</svg>
