<svg width="161" height="30" viewBox="0 0 161 30" fill="none" xmlns="http://www.w3.org/2000/svg">
<g id="Group 11">
<g id="creative 2">
<path id="creative" fill-rule="evenodd" clip-rule="evenodd" d="M123.848 6.38095C123.211 6.87275 122.333 7.11865 121.214 7.11865C120.127 7.11865 119.263 6.87275 118.621 6.38095C117.979 5.88915 117.658 5.07494 117.658 3.93833C117.658 2.95472 117.979 2.19242 118.621 1.65144C119.263 1.11046 120.138 0.839966 121.247 0.839966C122.355 0.839966 123.225 1.12139 123.856 1.68423C124.487 2.24707 124.802 2.99844 124.802 3.93833C124.802 5.07494 124.484 5.88915 123.848 6.38095ZM111.386 25.84C111.913 25.84 112.453 25.8126 113.007 25.758C113.562 25.7034 114.077 25.6159 114.555 25.4957C115.032 25.3755 115.43 25.2279 115.748 25.0531L115.435 20.1842C115.04 20.4356 114.654 20.6214 114.275 20.7416C113.896 20.8618 113.548 20.9219 113.23 20.9219C112.516 20.9219 112.011 20.6842 111.715 20.2088C111.419 19.7334 111.271 19.0531 111.271 18.1678V13.4957H115.699V8.95472H111.271V2.59406L105.213 3.62685V8.95472H102.809V13.4957H105.213V20.217C105.213 21.5389 105.434 22.6055 105.877 23.4169L105.945 23.5367C106.434 24.3618 107.141 24.952 108.069 25.3072C108.996 25.6624 110.102 25.84 111.386 25.84ZM61.5553 16.3973V25.3646H55.415V8.95472L60.5347 8.67603L60.7981 11.4957H61.2919C61.709 10.6651 62.1589 10.034 62.6418 9.60226C63.1247 9.17057 63.6158 8.87275 64.1152 8.70882C64.6145 8.54488 65.1056 8.46292 65.5885 8.46292C65.797 8.46292 66.0604 8.48477 66.3787 8.52849C66.697 8.57221 66.9933 8.65417 67.2676 8.77439L66.7409 14.676C66.2799 14.6651 65.8656 14.6542 65.498 14.6432C65.1303 14.6323 64.7544 14.6269 64.3703 14.6269C64.063 14.6269 63.7695 14.6542 63.4896 14.7088C63.2097 14.7635 62.9518 14.8591 62.7159 14.9957C62.4799 15.1323 62.2632 15.3154 62.0656 15.5449C61.8681 15.7744 61.698 16.0585 61.5553 16.3973ZM49.9414 25.6514C49.3323 25.7115 48.6491 25.7416 47.8918 25.7416C45.9713 25.7416 44.3443 25.3755 43.0109 24.6432C41.6774 23.911 40.6623 22.9055 39.9654 21.6269C39.2685 20.3482 38.92 18.8728 38.92 17.2006C38.92 15.5285 39.2356 14.0367 39.8666 12.7252C40.4977 11.4137 41.4525 10.3809 42.731 9.62685C44.0096 8.87275 45.6201 8.4957 47.5626 8.4957C48.2211 8.4957 48.8796 8.54215 49.538 8.63505C50.1965 8.72794 50.8193 8.85909 51.4065 9.02849C51.9936 9.19789 52.5122 9.40281 52.9621 9.64324L52.5341 14.84C51.8976 14.4793 51.3269 14.2143 50.8221 14.0449C50.3172 13.8755 49.8673 13.7607 49.4722 13.7006C49.0771 13.6405 48.7369 13.6105 48.4516 13.6105C47.4638 13.6105 46.6709 13.9165 46.0728 14.5285C45.4747 15.1405 45.1756 15.9711 45.1756 17.0203C45.1756 17.7744 45.3402 18.4329 45.6695 18.9957C45.9987 19.5585 46.4761 19.9984 47.1017 20.3154C47.7272 20.6323 48.479 20.7908 49.357 20.7908C49.7411 20.7908 50.1197 20.7553 50.4928 20.6842C50.866 20.6132 51.2336 20.5039 51.5958 20.3564C51.958 20.2088 52.3092 20.0258 52.6494 19.8072L52.8963 25.0039C52.5012 25.1569 52.0622 25.2881 51.5793 25.3973C51.0964 25.5066 50.5505 25.5913 49.9414 25.6514ZM83.9987 17.8471C84.0347 17.591 84.063 17.3318 84.0836 17.0695C84.111 16.7197 84.1247 16.3208 84.1247 15.8728C84.1247 14.1678 83.8312 12.7717 83.244 11.6842C82.6569 10.5968 81.8118 9.78805 80.7089 9.258C79.6059 8.72794 78.2697 8.46292 76.7004 8.46292C74.8566 8.46292 73.3311 8.83177 72.1239 9.56947C70.9167 10.3072 70.014 11.329 69.4159 12.635C68.8178 13.9411 68.5187 15.4411 68.5187 17.135C68.5187 18.84 68.8425 20.3454 69.49 21.6514C70.1375 22.9575 71.1554 23.982 72.5437 24.7252C73.932 25.4684 75.7346 25.84 77.9515 25.84C78.8295 25.84 79.6361 25.7935 80.3714 25.7006C81.1067 25.6077 81.7652 25.4848 82.3468 25.3318C82.9285 25.1788 83.4333 25.0094 83.8613 24.8236L83.6638 19.758C83.148 20.0094 82.5828 20.217 81.9682 20.3809C81.3536 20.5449 80.7583 20.6678 80.1821 20.7498C79.6059 20.8318 79.1203 20.8728 78.7252 20.8728C77.7046 20.8728 76.876 20.7307 76.2394 20.4465C75.6029 20.1624 75.1337 19.7498 74.8319 19.2088C74.6595 18.8997 74.5363 18.5504 74.4624 18.161L74.4521 18.1023H83.9601L83.9987 17.8471ZM74.4267 15.3105L74.4224 15.3486L78.8182 15.2281L78.816 15.1634C78.7761 14.3936 78.5867 13.7749 78.2478 13.3072C77.8637 12.7771 77.3698 12.5121 76.7662 12.5121C76.3163 12.5121 75.9129 12.6514 75.5563 12.9301C75.1996 13.2088 74.9142 13.6187 74.7002 14.1596C74.5685 14.4926 74.4774 14.8762 74.4267 15.3105ZM90.3803 25.7908C91.1485 25.7908 91.8317 25.6624 92.4298 25.4055C93.0279 25.1487 93.5465 24.8154 93.9855 24.4055C94.4245 23.9957 94.7866 23.5503 95.072 23.0695H95.4835L95.8951 25.3646H100.965V14.4137C100.965 13.0148 100.699 11.8782 100.167 11.0039C99.6347 10.1296 98.8637 9.48751 97.8541 9.07767C96.8444 8.66783 95.6317 8.46292 94.216 8.46292C93.4148 8.46292 92.6466 8.5039 91.9113 8.58587C91.176 8.66783 90.4846 8.77166 89.8371 8.89734C89.1896 9.02303 88.5969 9.16237 88.0592 9.31538C87.5214 9.46838 87.044 9.61046 86.627 9.74161L86.8904 14.84C87.3842 14.5995 87.8781 14.3919 88.3719 14.217C88.8658 14.0422 89.3569 13.8973 89.8453 13.7826C90.3337 13.6678 90.8001 13.5804 91.2446 13.5203C91.689 13.4602 92.0978 13.4301 92.471 13.4301C93.1295 13.4301 93.6837 13.4902 94.1336 13.6105C94.5836 13.7307 94.9183 13.9165 95.1378 14.1678C95.3573 14.4192 95.4561 14.7471 95.4341 15.1514L91.0388 15.8891C90.534 15.9766 89.9852 16.1214 89.3926 16.3236C88.8 16.5258 88.2375 16.8208 87.7052 17.2088C87.173 17.5968 86.7367 18.105 86.3965 18.7334C86.0563 19.3618 85.8862 20.1514 85.8862 21.1023C85.8862 21.9875 86.059 22.7853 86.4047 23.4957C86.7504 24.2061 87.258 24.7662 87.9275 25.176C88.5969 25.5859 89.4145 25.7908 90.3803 25.7908ZM92.1253 20.8072C92.4216 21.0258 92.7453 21.135 93.0965 21.135C93.3599 21.135 93.6261 21.0722 93.8949 20.9465C94.1638 20.8208 94.4162 20.6432 94.6522 20.4137C94.8882 20.1842 95.0939 19.9165 95.2695 19.6105V17.2006C95.1598 17.299 95.0308 17.3891 94.8827 17.4711C94.7345 17.5531 94.526 17.6378 94.2571 17.7252C93.9882 17.8126 93.6233 17.9165 93.1624 18.0367C92.888 18.1023 92.6383 18.2088 92.4134 18.3564C92.1884 18.5039 92.01 18.6897 91.8783 18.9137C91.7467 19.1378 91.6808 19.4137 91.6808 19.7416C91.6808 20.2334 91.829 20.5886 92.1253 20.8072ZM124.309 25.3646V8.79079L118.168 8.95472V25.3646H124.309ZM139.585 22.2744C139.234 23.2962 138.877 24.3263 138.515 25.3646H131.996C131.645 24.3372 131.288 23.299 130.926 22.2498C130.564 21.2006 130.202 20.1678 129.84 19.1514L128.836 16.2498C128.419 15.0367 127.999 13.8208 127.576 12.6023C127.154 11.3837 126.728 10.1678 126.3 8.95472L132.935 8.77439C133.154 9.79079 133.371 10.8126 133.585 11.84C133.799 12.8673 134.016 13.8946 134.235 14.9219L135.058 18.7908H135.536L136.359 14.9055C136.589 13.8454 136.811 12.8181 137.025 11.8236L137.643 8.95472H144.178C143.761 10.1678 143.341 11.3864 142.919 12.6105C142.496 13.8345 142.071 15.0585 141.643 16.2826L140.639 19.2006C140.288 20.2279 139.936 21.2525 139.585 22.2744ZM160.794 17.8471C160.83 17.591 160.858 17.3318 160.879 17.0695C160.906 16.7197 160.92 16.3208 160.92 15.8728C160.92 14.1678 160.626 12.7717 160.039 11.6842C159.452 10.5968 158.607 9.78805 157.504 9.258C156.401 8.72794 155.065 8.46292 153.496 8.46292C151.652 8.46292 150.126 8.83177 148.919 9.56947C147.712 10.3072 146.809 11.329 146.211 12.635C145.613 13.9411 145.314 15.4411 145.314 17.135C145.314 18.84 145.638 20.3454 146.285 21.6514C146.933 22.9575 147.951 23.982 149.339 24.7252C150.727 25.4684 152.53 25.84 154.747 25.84C155.625 25.84 156.431 25.7935 157.167 25.7006C157.902 25.6077 158.56 25.4848 159.142 25.3318C159.724 25.1788 160.229 25.0094 160.657 24.8236L160.459 19.758C159.943 20.0094 159.378 20.217 158.764 20.3809C158.149 20.5449 157.554 20.6678 156.977 20.7498C156.401 20.8318 155.916 20.8728 155.521 20.8728C154.5 20.8728 153.671 20.7307 153.035 20.4465C152.398 20.1624 151.929 19.7498 151.627 19.2088C151.455 18.8997 151.332 18.5504 151.258 18.161L151.247 18.1023H160.755L160.794 17.8471ZM151.222 15.3105L151.218 15.3486L155.614 15.2281L155.611 15.1634C155.571 14.3936 155.382 13.7749 155.043 13.3072C154.659 12.7771 154.165 12.5121 153.562 12.5121C153.112 12.5121 152.708 12.6514 152.352 12.9301C151.995 13.2088 151.71 13.6187 151.496 14.1596C151.364 14.4926 151.273 14.8762 151.222 15.3105Z" fill="black"/>
</g>
<path id="Combined Shape" fill-rule="evenodd" clip-rule="evenodd" d="M25.6069 13.8145H23.6434C23.5488 14.3303 23.3597 14.7443 23.076 15.0566C22.7923 15.3688 22.3803 15.5249 21.8399 15.5249C21.3536 15.5249 20.8267 15.3959 20.2594 15.138C19.692 14.8801 19.0773 14.5848 18.4154 14.2523C17.7535 13.9197 17.0206 13.6278 16.2168 13.3767C15.413 13.1256 14.5316 13 13.5724 13C11.8433 13 10.4823 13.733 9.48936 15.1991C8.49645 16.6652 8 18.6538 8 21.1652H12.3566C12.4512 20.6629 12.664 20.2557 12.9949 19.9434C13.3259 19.6312 13.7683 19.4751 14.3222 19.4751C14.7815 19.4751 15.2881 19.6007 15.8419 19.8518C16.3958 20.1029 17.0172 20.3982 17.7062 20.7376C18.3951 21.0769 19.155 21.3722 19.9858 21.6233C20.8166 21.8744 21.7183 22 22.691 22C23.6941 22 24.5687 21.7252 25.3148 21.1757C23.5755 26.307 18.719 30 13 30C5.8203 30 0 24.1797 0 17C0 9.8203 5.8203 4 13 4C19.0807 4 24.1863 8.1748 25.6069 13.8145Z" fill="#F94F4F"/>
</g>
</svg>
